<mxfile host="app.diagrams.net" modified="2021-04-21T14:41:14.489Z" agent="5.0 (Macintosh; Intel Mac OS X 11_2_3) AppleWebKit/537.36 (KHTML, like Gecko) Chrome/88.0.4324.150 Safari/537.36" etag="C3RP_pwnPKfFJm5g6ebe" version="14.6.3" type="github">
  <diagram id="ME7mpEllHsNX2F-B2jgv" name="Page-1">
    <mxGraphModel dx="519" dy="311" grid="1" gridSize="10" guides="1" tooltips="1" connect="1" arrows="1" fold="1" page="1" pageScale="1" pageWidth="827" pageHeight="1169" math="0" shadow="0">
      <root>
        <mxCell id="0" />
        <mxCell id="1" parent="0" />
        <mxCell id="nWHASpOcx9tYDA44HkZ5-1" value="" style="shape=umlActor;verticalLabelPosition=bottom;verticalAlign=top;html=1;outlineConnect=0;fillColor=#f8cecc;strokeColor=#b85450;" vertex="1" parent="1">
          <mxGeometry x="120" y="470" width="30" height="60" as="geometry" />
        </mxCell>
        <mxCell id="nWHASpOcx9tYDA44HkZ5-2" value="" style="shape=umlActor;verticalLabelPosition=bottom;verticalAlign=top;html=1;outlineConnect=0;fillColor=#dae8fc;strokeColor=#6c8ebf;" vertex="1" parent="1">
          <mxGeometry x="280" y="620" width="30" height="60" as="geometry" />
        </mxCell>
        <mxCell id="nWHASpOcx9tYDA44HkZ5-6" value="" style="shape=image;html=1;verticalAlign=top;verticalLabelPosition=bottom;labelBackgroundColor=#ffffff;imageAspect=0;aspect=fixed;image=https://cdn3.iconfinder.com/data/icons/materia-flat-halloween-free/24/039_026_cat_black_witch_halloween-128.png" vertex="1" parent="1">
          <mxGeometry x="250" y="440" width="90" height="90" as="geometry" />
        </mxCell>
        <mxCell id="nWHASpOcx9tYDA44HkZ5-8" value="" style="endArrow=none;html=1;exitX=0.75;exitY=0.1;exitDx=0;exitDy=0;exitPerimeter=0;entryX=0;entryY=0;entryDx=0;entryDy=0;" edge="1" parent="1" source="nWHASpOcx9tYDA44HkZ5-1" target="nWHASpOcx9tYDA44HkZ5-6">
          <mxGeometry width="50" height="50" relative="1" as="geometry">
            <mxPoint x="390" y="620" as="sourcePoint" />
            <mxPoint x="440" y="570" as="targetPoint" />
          </mxGeometry>
        </mxCell>
        <mxCell id="nWHASpOcx9tYDA44HkZ5-9" value="" style="endArrow=none;html=1;exitX=0.75;exitY=0.1;exitDx=0;exitDy=0;exitPerimeter=0;" edge="1" parent="1" source="nWHASpOcx9tYDA44HkZ5-1">
          <mxGeometry width="50" height="50" relative="1" as="geometry">
            <mxPoint x="182.5" y="466" as="sourcePoint" />
            <mxPoint x="240" y="530" as="targetPoint" />
          </mxGeometry>
        </mxCell>
        <mxCell id="nWHASpOcx9tYDA44HkZ5-10" value="" style="html=1;verticalLabelPosition=bottom;align=center;labelBackgroundColor=#ffffff;verticalAlign=top;strokeWidth=2;shadow=0;dashed=0;shape=mxgraph.ios7.icons.eye;" vertex="1" parent="1">
          <mxGeometry x="170" y="470" width="30" height="14.1" as="geometry" />
        </mxCell>
        <mxCell id="nWHASpOcx9tYDA44HkZ5-16" value="" style="endArrow=none;html=1;entryX=0;entryY=1;entryDx=0;entryDy=0;" edge="1" parent="1" source="nWHASpOcx9tYDA44HkZ5-2" target="nWHASpOcx9tYDA44HkZ5-6">
          <mxGeometry width="50" height="50" relative="1" as="geometry">
            <mxPoint x="192.5" y="476" as="sourcePoint" />
            <mxPoint x="270" y="460" as="targetPoint" />
          </mxGeometry>
        </mxCell>
        <mxCell id="nWHASpOcx9tYDA44HkZ5-17" value="" style="endArrow=none;html=1;entryX=1;entryY=1;entryDx=0;entryDy=0;" edge="1" parent="1" source="nWHASpOcx9tYDA44HkZ5-2" target="nWHASpOcx9tYDA44HkZ5-6">
          <mxGeometry width="50" height="50" relative="1" as="geometry">
            <mxPoint x="202.5" y="486" as="sourcePoint" />
            <mxPoint x="280" y="470" as="targetPoint" />
          </mxGeometry>
        </mxCell>
        <mxCell id="nWHASpOcx9tYDA44HkZ5-18" value="" style="html=1;verticalLabelPosition=bottom;align=center;labelBackgroundColor=#ffffff;verticalAlign=top;strokeWidth=2;shadow=0;dashed=0;shape=mxgraph.ios7.icons.eye;" vertex="1" parent="1">
          <mxGeometry x="280" y="585" width="30" height="14.1" as="geometry" />
        </mxCell>
        <mxCell id="nWHASpOcx9tYDA44HkZ5-19" value="cat or dog?" style="text;html=1;strokeColor=none;fillColor=none;align=center;verticalAlign=middle;whiteSpace=wrap;rounded=0;" vertex="1" parent="1">
          <mxGeometry x="70" y="500" width="40" height="20" as="geometry" />
        </mxCell>
        <mxCell id="nWHASpOcx9tYDA44HkZ5-20" value="cat!" style="text;html=1;align=center;verticalAlign=middle;resizable=0;points=[];autosize=1;strokeColor=none;" vertex="1" parent="1">
          <mxGeometry x="280" y="690" width="30" height="20" as="geometry" />
        </mxCell>
        <mxCell id="nWHASpOcx9tYDA44HkZ5-21" value="" style="endArrow=classic;html=1;" edge="1" parent="1">
          <mxGeometry width="50" height="50" relative="1" as="geometry">
            <mxPoint x="120" y="640" as="sourcePoint" />
            <mxPoint x="120" y="560" as="targetPoint" />
          </mxGeometry>
        </mxCell>
        <mxCell id="nWHASpOcx9tYDA44HkZ5-22" value="" style="endArrow=classic;html=1;" edge="1" parent="1">
          <mxGeometry width="50" height="50" relative="1" as="geometry">
            <mxPoint x="120" y="640" as="sourcePoint" />
            <mxPoint x="200" y="640" as="targetPoint" />
          </mxGeometry>
        </mxCell>
        <mxCell id="nWHASpOcx9tYDA44HkZ5-24" value="" style="ellipse;whiteSpace=wrap;html=1;aspect=fixed;fillColor=#d5e8d4;strokeColor=#82b366;" vertex="1" parent="1">
          <mxGeometry x="150" y="599.1" width="10" height="10" as="geometry" />
        </mxCell>
        <mxCell id="nWHASpOcx9tYDA44HkZ5-25" value="" style="ellipse;whiteSpace=wrap;html=1;aspect=fixed;fillColor=#d5e8d4;strokeColor=#82b366;" vertex="1" parent="1">
          <mxGeometry x="180" y="629.1000000000001" width="10" height="10" as="geometry" />
        </mxCell>
        <mxCell id="nWHASpOcx9tYDA44HkZ5-26" value="cats" style="text;html=1;align=center;verticalAlign=middle;resizable=0;points=[];autosize=1;strokeColor=#82b366;fillColor=#d5e8d4;" vertex="1" parent="1">
          <mxGeometry x="70" y="560" width="40" height="20" as="geometry" />
        </mxCell>
        <mxCell id="nWHASpOcx9tYDA44HkZ5-27" value="dogs&lt;br&gt;" style="text;html=1;align=center;verticalAlign=middle;resizable=0;points=[];autosize=1;strokeColor=#d6b656;fillColor=#fff2cc;" vertex="1" parent="1">
          <mxGeometry x="70" y="582.05" width="40" height="20" as="geometry" />
        </mxCell>
        <mxCell id="nWHASpOcx9tYDA44HkZ5-30" value="" style="endArrow=classic;html=1;dashed=1;endSize=2;" edge="1" parent="1" source="nWHASpOcx9tYDA44HkZ5-24">
          <mxGeometry width="50" height="50" relative="1" as="geometry">
            <mxPoint x="145" y="599.1" as="sourcePoint" />
            <mxPoint x="170" y="619.1" as="targetPoint" />
          </mxGeometry>
        </mxCell>
        <mxCell id="nWHASpOcx9tYDA44HkZ5-32" value="" style="endArrow=classic;html=1;endSize=2;dashed=1;" edge="1" parent="1" source="nWHASpOcx9tYDA44HkZ5-25">
          <mxGeometry width="50" height="50" relative="1" as="geometry">
            <mxPoint x="155" y="609.1" as="sourcePoint" />
            <mxPoint x="170" y="619.1" as="targetPoint" />
          </mxGeometry>
        </mxCell>
        <mxCell id="nWHASpOcx9tYDA44HkZ5-34" value="" style="ellipse;whiteSpace=wrap;html=1;aspect=fixed;fillColor=#fff2cc;strokeColor=#d6b656;" vertex="1" parent="1">
          <mxGeometry x="130" y="599.1" width="10" height="10" as="geometry" />
        </mxCell>
        <mxCell id="nWHASpOcx9tYDA44HkZ5-35" value="" style="ellipse;whiteSpace=wrap;html=1;aspect=fixed;fillColor=#fff2cc;strokeColor=#d6b656;" vertex="1" parent="1">
          <mxGeometry x="150" y="560" width="10" height="10" as="geometry" />
        </mxCell>
        <mxCell id="nWHASpOcx9tYDA44HkZ5-37" value="" style="ellipse;whiteSpace=wrap;html=1;aspect=fixed;fillColor=#fff2cc;strokeColor=#d6b656;" vertex="1" parent="1">
          <mxGeometry x="170" y="570" width="10" height="10" as="geometry" />
        </mxCell>
        <mxCell id="nWHASpOcx9tYDA44HkZ5-38" value="" style="ellipse;whiteSpace=wrap;html=1;aspect=fixed;fillColor=#fff2cc;strokeColor=#d6b656;" vertex="1" parent="1">
          <mxGeometry x="130" y="565" width="10" height="10" as="geometry" />
        </mxCell>
        <mxCell id="nWHASpOcx9tYDA44HkZ5-39" value="Latent code" style="text;html=1;align=center;verticalAlign=middle;resizable=0;points=[];autosize=1;strokeColor=none;" vertex="1" parent="1">
          <mxGeometry x="110" y="650" width="80" height="20" as="geometry" />
        </mxCell>
      </root>
    </mxGraphModel>
  </diagram>
</mxfile>
